<svg width="112" height="37" viewBox="0 0 112 37" fill="none" xmlns="http://www.w3.org/2000/svg">
<path d="M0.84 36V0.719999H7.368V36H0.84ZM26.2271 36.72C23.6191 36.72 21.3311 36.136 19.3631 34.968C17.3951 33.8 15.8591 32.192 14.7551 30.144C13.6671 28.08 13.1231 25.712 13.1231 23.04C13.1231 20.336 13.6831 17.96 14.8031 15.912C15.9231 13.848 17.4671 12.24 19.4351 11.088C21.4031 9.936 23.6671 9.36 26.2271 9.36C28.8351 9.36 31.1231 9.944 33.0911 11.112C35.0751 12.28 36.6191 13.896 37.7231 15.96C38.8271 18.008 39.3791 20.368 39.3791 23.04C39.3791 25.728 38.8191 28.104 37.6991 30.168C36.5951 32.216 35.0511 33.824 33.0671 34.992C31.0991 36.144 28.8191 36.72 26.2271 36.72ZM26.2271 30.624C28.3231 30.624 29.8831 29.92 30.9071 28.512C31.9471 27.088 32.4671 25.264 32.4671 23.04C32.4671 20.736 31.9391 18.896 30.8831 17.52C29.8431 16.144 28.2911 15.456 26.2271 15.456C24.8031 15.456 23.6351 15.776 22.7231 16.416C21.8111 17.056 21.1311 17.944 20.6831 19.08C20.2511 20.216 20.0351 21.536 20.0351 23.04C20.0351 25.36 20.5551 27.208 21.5951 28.584C22.6511 29.944 24.1951 30.624 26.2271 30.624ZM50.7274 36L41.3194 10.08H47.8474L53.9914 28.032L60.1354 10.08H66.6634L57.2554 36H50.7274ZM82.1111 36.72C79.4551 36.72 77.1111 36.152 75.0791 35.016C73.0631 33.864 71.4791 32.288 70.3271 30.288C69.1911 28.272 68.6231 25.968 68.6231 23.376C68.6231 20.544 69.1831 18.08 70.3031 15.984C71.4231 13.888 72.9671 12.264 74.9351 11.112C76.9031 9.944 79.1671 9.36 81.7271 9.36C84.4471 9.36 86.7591 10 88.6631 11.28C90.5671 12.56 91.9751 14.36 92.8871 16.68C93.7991 19 94.1191 21.728 93.8471 24.864H87.3911V22.464C87.3911 19.824 86.9671 17.928 86.1191 16.776C85.2871 15.608 83.9191 15.024 82.0151 15.024C79.7911 15.024 78.1511 15.704 77.0951 17.064C76.0551 18.408 75.5351 20.4 75.5351 23.04C75.5351 25.456 76.0551 27.328 77.0951 28.656C78.1511 29.968 79.6951 30.624 81.7271 30.624C83.0071 30.624 84.1031 30.344 85.0151 29.784C85.9271 29.224 86.6231 28.416 87.1031 27.36L93.6311 29.232C92.6551 31.6 91.1111 33.44 88.9991 34.752C86.9031 36.064 84.6071 36.72 82.1111 36.72ZM73.5191 24.864V20.016H90.7031V24.864H73.5191ZM107.186 36.576C104.69 36.576 102.946 35.856 101.954 34.416C100.994 32.976 100.514 31.104 100.514 28.8V15.888H97.0583V12.912L100.706 12.672L101.186 6.144H104.498V12.672H110.786V15.888H104.498V28.848C104.498 30.288 104.754 31.408 105.266 32.208C105.81 32.976 106.754 33.36 108.098 33.36C108.514 33.36 108.962 33.296 109.442 33.168C109.922 33.008 110.354 32.864 110.738 32.736L111.506 35.712C110.866 35.936 110.162 36.128 109.394 36.288C108.658 36.48 107.922 36.576 107.186 36.576Z" fill="white"/>
</svg>
