<svg width="230" height="47" viewBox="0 0 230 47" fill="none" xmlns="http://www.w3.org/2000/svg">
<path d="M37.792 3.016V3.976C36.704 4.008 35.872 4.136 35.296 4.36C34.752 4.552 34.384 4.936 34.192 5.512C34 6.056 33.904 6.92 33.904 8.104V31.912C33.904 33.064 34 33.928 34.192 34.504C34.384 35.08 34.752 35.464 35.296 35.656C35.872 35.848 36.704 35.976 37.792 36.04V37C37.056 36.936 36.128 36.904 35.008 36.904C33.92 36.872 32.816 36.856 31.696 36.856C30.448 36.856 29.28 36.872 28.192 36.904C27.104 36.904 26.224 36.936 25.552 37V36.04C26.64 35.976 27.456 35.848 28 35.656C28.576 35.464 28.96 35.08 29.152 34.504C29.344 33.928 29.44 33.064 29.44 31.912V5.512L29.632 5.656L17.872 37.24H17.104L5.008 6.088V31.432C5.008 32.584 5.104 33.496 5.296 34.168C5.52 34.808 5.936 35.272 6.544 35.56C7.184 35.816 8.128 35.976 9.376 36.04V37C8.8 36.936 8.048 36.904 7.12 36.904C6.192 36.872 5.312 36.856 4.48 36.856C3.68 36.856 2.864 36.872 2.032 36.904C1.232 36.904 0.56 36.936 0.0160002 37V36.04C1.104 35.976 1.92 35.816 2.464 35.56C3.04 35.272 3.424 34.808 3.616 34.168C3.808 33.496 3.904 32.584 3.904 31.432V8.104C3.904 6.92 3.808 6.056 3.616 5.512C3.424 4.936 3.04 4.552 2.464 4.36C1.92 4.136 1.104 4.008 0.0160002 3.976V3.016C0.56 3.048 1.232 3.08 2.032 3.112C2.864 3.144 3.68 3.16 4.48 3.16C5.184 3.16 5.904 3.144 6.64 3.112C7.408 3.08 8.048 3.048 8.56 3.016L19.456 31.72L18.64 32.104L29.44 3.16C29.824 3.16 30.192 3.16 30.544 3.16C30.928 3.16 31.312 3.16 31.696 3.16C32.816 3.16 33.92 3.144 35.008 3.112C36.128 3.08 37.056 3.048 37.792 3.016ZM46.6765 0.279998C47.5085 0.279998 48.2285 0.583998 48.8365 1.192C49.4445 1.8 49.7485 2.52 49.7485 3.352C49.7485 4.184 49.4445 4.904 48.8365 5.512C48.2285 6.12 47.5085 6.424 46.6765 6.424C45.8445 6.424 45.1245 6.12 44.5165 5.512C43.9085 4.904 43.6045 4.184 43.6045 3.352C43.6045 2.52 43.9085 1.8 44.5165 1.192C45.1245 0.583998 45.8445 0.279998 46.6765 0.279998ZM49.1725 11.752V32.536C49.1725 33.88 49.4445 34.792 49.9885 35.272C50.5645 35.752 51.5085 35.992 52.8205 35.992V37C52.2765 36.968 51.4445 36.936 50.3245 36.904C49.2365 36.84 48.1325 36.808 47.0125 36.808C45.9245 36.808 44.8205 36.84 43.7005 36.904C42.5805 36.936 41.7485 36.968 41.2045 37V35.992C42.5165 35.992 43.4445 35.752 43.9885 35.272C44.5645 34.792 44.8525 33.88 44.8525 32.536V17.512C44.8525 16.072 44.5965 15.016 44.0845 14.344C43.5725 13.64 42.6125 13.288 41.2045 13.288V12.28C42.2285 12.376 43.2205 12.424 44.1805 12.424C45.1085 12.424 45.9885 12.376 46.8205 12.28C47.6845 12.152 48.4685 11.976 49.1725 11.752ZM62.083 37.336C60.771 37.336 59.635 37.096 58.675 36.616C57.715 36.104 56.979 35.4 56.467 34.504C55.987 33.608 55.747 32.568 55.747 31.384C55.747 29.976 56.067 28.824 56.707 27.928C57.379 27.032 58.227 26.312 59.251 25.768C60.275 25.224 61.347 24.776 62.467 24.424C63.619 24.04 64.707 23.688 65.731 23.368C66.755 23.016 67.587 22.616 68.227 22.168C68.899 21.72 69.235 21.128 69.235 20.392V17.416C69.235 16.072 69.027 15.048 68.611 14.344C68.227 13.64 67.699 13.176 67.027 12.952C66.355 12.696 65.603 12.568 64.771 12.568C63.971 12.568 63.107 12.68 62.179 12.904C61.283 13.128 60.563 13.592 60.019 14.296C60.627 14.424 61.155 14.744 61.603 15.256C62.051 15.768 62.275 16.424 62.275 17.224C62.275 18.024 62.019 18.664 61.507 19.144C60.995 19.592 60.339 19.816 59.539 19.816C58.611 19.816 57.923 19.528 57.475 18.952C57.059 18.344 56.851 17.672 56.851 16.936C56.851 16.104 57.059 15.432 57.475 14.92C57.891 14.408 58.419 13.928 59.059 13.48C59.795 12.968 60.739 12.536 61.891 12.184C63.075 11.8 64.403 11.608 65.875 11.608C67.187 11.608 68.307 11.768 69.235 12.088C70.163 12.376 70.931 12.808 71.539 13.384C72.371 14.152 72.915 15.096 73.171 16.216C73.427 17.304 73.555 18.616 73.555 20.152V33.496C73.555 34.296 73.667 34.872 73.891 35.224C74.147 35.576 74.531 35.752 75.043 35.752C75.395 35.752 75.731 35.672 76.051 35.512C76.371 35.352 76.755 35.096 77.203 34.744L77.731 35.56C77.059 36.072 76.419 36.504 75.811 36.856C75.203 37.176 74.387 37.336 73.363 37.336C72.435 37.336 71.667 37.176 71.059 36.856C70.451 36.536 69.987 36.072 69.667 35.464C69.379 34.824 69.235 34.024 69.235 33.064C68.371 34.504 67.331 35.576 66.115 36.28C64.931 36.984 63.587 37.336 62.083 37.336ZM63.811 35.416C64.867 35.416 65.843 35.112 66.739 34.504C67.667 33.896 68.499 32.984 69.235 31.768V22.36C68.851 22.904 68.291 23.368 67.555 23.752C66.819 24.104 66.019 24.472 65.155 24.856C64.291 25.208 63.459 25.64 62.659 26.152C61.891 26.632 61.251 27.272 60.739 28.072C60.227 28.872 59.971 29.912 59.971 31.192C59.971 32.472 60.307 33.496 60.979 34.264C61.683 35.032 62.627 35.416 63.811 35.416ZM79.4133 3.016C80.2453 3.048 81.3333 3.08 82.6773 3.112C84.0213 3.144 85.3653 3.16 86.7093 3.16C88.2453 3.16 89.7333 3.144 91.1733 3.112C92.6133 3.08 93.6373 3.064 94.2453 3.064C98.2133 3.064 101.173 3.768 103.125 5.176C105.109 6.584 106.101 8.392 106.101 10.6C106.101 11.72 105.765 12.856 105.093 14.008C104.421 15.16 103.381 16.184 101.973 17.08C100.565 17.976 98.7413 18.632 96.5013 19.048V19.144C99.5093 19.368 101.893 19.912 103.653 20.776C105.413 21.64 106.677 22.68 107.445 23.896C108.213 25.112 108.597 26.376 108.597 27.688C108.597 29.704 108.069 31.4 107.013 32.776C105.957 34.152 104.437 35.208 102.453 35.944C100.469 36.648 98.1013 37 95.3493 37C94.5813 37 93.4773 36.984 92.0373 36.952C90.5973 36.888 88.8533 36.856 86.8053 36.856C85.3973 36.856 84.0213 36.872 82.6773 36.904C81.3333 36.904 80.2453 36.936 79.4133 37V36.04C80.4373 35.976 81.2053 35.848 81.7173 35.656C82.2293 35.464 82.5653 35.08 82.7253 34.504C82.9173 33.928 83.0133 33.064 83.0133 31.912V8.104C83.0133 6.92 82.9173 6.056 82.7253 5.512C82.5653 4.936 82.2133 4.552 81.6693 4.36C81.1573 4.136 80.4053 4.008 79.4133 3.976V3.016ZM93.6213 3.976C92.3733 3.976 91.5573 4.248 91.1733 4.792C90.8213 5.336 90.6453 6.44 90.6453 8.104V31.912C90.6453 33.032 90.7253 33.88 90.8853 34.456C91.0773 35.032 91.3973 35.416 91.8453 35.608C92.3253 35.8 93.0293 35.896 93.9573 35.896C96.2613 35.896 97.9413 35.176 98.9973 33.736C100.085 32.264 100.629 30.184 100.629 27.496C100.629 25.032 100.005 23.128 98.7573 21.784C97.5413 20.44 95.5093 19.768 92.6613 19.768H88.5813C88.5813 19.768 88.5813 19.64 88.5813 19.384C88.5813 19.096 88.5813 18.952 88.5813 18.952H92.7093C94.2133 18.952 95.3653 18.6 96.1653 17.896C96.9653 17.16 97.5253 16.2 97.8453 15.016C98.1653 13.8 98.3253 12.504 98.3253 11.128C98.3253 8.76 97.9573 6.984 97.2213 5.8C96.4853 4.584 95.2853 3.976 93.6213 3.976ZM123.567 11.512C126.383 11.512 128.591 12.344 130.191 14.008C131.791 15.672 132.591 18.392 132.591 22.168H116.799L116.703 21.256H126.543C126.575 19.688 126.479 18.248 126.255 16.936C126.031 15.592 125.679 14.52 125.199 13.72C124.719 12.92 124.079 12.52 123.279 12.52C122.159 12.52 121.199 13.224 120.399 14.632C119.631 16.04 119.167 18.376 119.007 21.64L119.151 21.928C119.119 22.312 119.087 22.712 119.055 23.128C119.055 23.544 119.055 23.976 119.055 24.424C119.055 26.632 119.359 28.424 119.967 29.8C120.607 31.176 121.407 32.184 122.367 32.824C123.327 33.432 124.303 33.736 125.295 33.736C125.967 33.736 126.655 33.64 127.359 33.448C128.095 33.224 128.831 32.84 129.567 32.296C130.303 31.72 130.991 30.92 131.631 29.896L132.495 30.184C132.111 31.4 131.503 32.584 130.671 33.736C129.839 34.888 128.783 35.832 127.503 36.568C126.223 37.304 124.687 37.672 122.895 37.672C120.719 37.672 118.799 37.208 117.135 36.28C115.471 35.352 114.159 33.944 113.199 32.056C112.271 30.168 111.807 27.768 111.807 24.856C111.807 21.88 112.303 19.4 113.295 17.416C114.319 15.432 115.711 13.96 117.471 13C119.263 12.008 121.295 11.512 123.567 11.512ZM141.995 37.336C140.555 37.336 139.355 37.064 138.395 36.52C137.435 35.976 136.731 35.256 136.283 34.36C135.835 33.432 135.611 32.424 135.611 31.336C135.611 29.96 135.915 28.84 136.523 27.976C137.163 27.112 137.979 26.408 138.971 25.864C139.963 25.32 141.003 24.872 142.091 24.52C143.211 24.168 144.267 23.832 145.259 23.512C146.283 23.16 147.099 22.76 147.707 22.312C148.347 21.832 148.667 21.224 148.667 20.488V16.744C148.667 15.912 148.523 15.176 148.235 14.536C147.979 13.864 147.563 13.352 146.987 13C146.443 12.648 145.723 12.472 144.827 12.472C144.187 12.472 143.547 12.568 142.907 12.76C142.267 12.92 141.739 13.208 141.323 13.624C142.219 13.944 142.907 14.44 143.387 15.112C143.899 15.752 144.155 16.488 144.155 17.32C144.155 18.408 143.771 19.272 143.003 19.912C142.267 20.552 141.387 20.872 140.363 20.872C139.211 20.872 138.331 20.52 137.723 19.816C137.147 19.08 136.859 18.2 136.859 17.176C136.859 16.248 137.083 15.48 137.531 14.872C138.011 14.264 138.667 13.688 139.499 13.144C140.395 12.632 141.467 12.232 142.715 11.944C143.995 11.656 145.371 11.512 146.843 11.512C148.315 11.512 149.643 11.672 150.827 11.992C152.011 12.28 153.003 12.824 153.803 13.624C154.539 14.36 155.019 15.272 155.243 16.36C155.467 17.416 155.579 18.76 155.579 20.392V33.448C155.579 34.248 155.659 34.808 155.819 35.128C155.979 35.416 156.251 35.56 156.635 35.56C156.923 35.56 157.195 35.48 157.451 35.32C157.739 35.16 158.043 34.968 158.363 34.744L158.843 35.56C158.171 36.136 157.387 36.584 156.491 36.904C155.627 37.192 154.651 37.336 153.563 37.336C152.379 37.336 151.435 37.176 150.731 36.856C150.027 36.504 149.515 36.04 149.195 35.464C148.907 34.888 148.763 34.216 148.763 33.448C147.995 34.664 147.067 35.624 145.979 36.328C144.891 37 143.563 37.336 141.995 37.336ZM145.403 34.264C146.043 34.264 146.619 34.12 147.131 33.832C147.675 33.512 148.187 33 148.667 32.296V22.456C148.379 22.936 147.979 23.368 147.467 23.752C146.955 24.136 146.411 24.536 145.835 24.952C145.259 25.336 144.699 25.768 144.155 26.248C143.643 26.728 143.227 27.32 142.907 28.024C142.587 28.728 142.427 29.576 142.427 30.568C142.427 31.816 142.699 32.744 143.243 33.352C143.787 33.96 144.507 34.264 145.403 34.264ZM184.119 11.656V31.768C184.119 33.208 184.343 34.28 184.791 34.984C185.239 35.656 186.039 35.992 187.191 35.992V37C186.199 36.904 185.207 36.856 184.215 36.856C182.871 36.856 181.623 36.904 180.471 37C179.319 37.096 178.231 37.272 177.207 37.528V33.208C176.439 34.808 175.367 35.96 173.991 36.664C172.647 37.336 171.143 37.672 169.479 37.672C168.135 37.672 167.047 37.496 166.215 37.144C165.383 36.792 164.727 36.344 164.247 35.8C163.703 35.192 163.319 34.392 163.095 33.4C162.871 32.408 162.759 31.128 162.759 29.56V17.416C162.759 15.976 162.535 14.92 162.087 14.248C161.671 13.544 160.871 13.192 159.687 13.192V12.184C160.711 12.28 161.703 12.328 162.663 12.328C164.007 12.328 165.255 12.28 166.407 12.184C167.591 12.056 168.679 11.88 169.671 11.656V31.528C169.671 32.328 169.735 33.032 169.863 33.64C170.023 34.248 170.311 34.728 170.727 35.08C171.143 35.4 171.751 35.56 172.551 35.56C173.415 35.56 174.183 35.32 174.855 34.84C175.559 34.36 176.119 33.704 176.535 32.872C176.983 32.008 177.207 31.048 177.207 29.992V17.416C177.207 15.976 176.983 14.92 176.535 14.248C176.119 13.544 175.319 13.192 174.135 13.192V12.184C175.159 12.28 176.151 12.328 177.111 12.328C178.455 12.328 179.703 12.28 180.855 12.184C182.039 12.056 183.127 11.88 184.119 11.656ZM199.068 4.312V12.184H204.732V13.144H199.068V32.536C199.068 33.496 199.244 34.184 199.596 34.6C199.948 34.984 200.476 35.176 201.18 35.176C201.756 35.176 202.332 34.968 202.908 34.552C203.484 34.104 203.996 33.352 204.444 32.296L205.26 32.728C204.748 34.168 203.964 35.352 202.908 36.28C201.884 37.208 200.476 37.672 198.684 37.672C197.628 37.672 196.7 37.528 195.9 37.24C195.1 36.984 194.428 36.584 193.884 36.04C193.18 35.336 192.716 34.472 192.492 33.448C192.268 32.392 192.156 31.032 192.156 29.368V13.144H188.124V12.184H192.156V5.848C193.5 5.848 194.732 5.736 195.852 5.512C197.004 5.256 198.076 4.856 199.068 4.312ZM229.671 12.184V13.144C229.063 13.304 228.487 13.688 227.943 14.296C227.399 14.872 226.871 15.864 226.359 17.272L219.591 36.28L217.815 39.64L207.351 15.88C206.807 14.632 206.263 13.88 205.719 13.624C205.207 13.336 204.759 13.192 204.375 13.192V12.184C205.431 12.28 206.519 12.36 207.639 12.424C208.791 12.456 209.895 12.472 210.951 12.472C212.263 12.472 213.463 12.44 214.551 12.376C215.639 12.312 216.663 12.248 217.623 12.184V13.192C216.983 13.192 216.375 13.24 215.799 13.336C215.255 13.4 214.871 13.624 214.647 14.008C214.455 14.36 214.551 14.984 214.935 15.88L220.983 30.472L220.551 30.76L224.103 20.824C224.711 19.096 224.967 17.688 224.871 16.6C224.775 15.48 224.423 14.648 223.815 14.104C223.207 13.528 222.375 13.208 221.319 13.144V12.184C221.831 12.216 222.359 12.248 222.903 12.28C223.447 12.28 223.991 12.296 224.535 12.328C225.079 12.328 225.559 12.328 225.975 12.328C226.615 12.328 227.287 12.312 227.991 12.28C228.695 12.248 229.255 12.216 229.671 12.184ZM219.591 36.28L217.767 41.416C217.447 42.216 217.111 42.888 216.759 43.432C216.439 44.008 216.071 44.472 215.655 44.824C215.207 45.208 214.631 45.496 213.927 45.688C213.223 45.912 212.407 46.024 211.479 46.024C210.711 46.024 209.911 45.896 209.079 45.64C208.279 45.384 207.607 44.968 207.063 44.392C206.519 43.816 206.247 43.08 206.247 42.184C206.247 41.192 206.599 40.392 207.303 39.784C208.007 39.208 208.935 38.92 210.087 38.92C211.143 38.92 212.007 39.176 212.679 39.688C213.351 40.2 213.687 40.952 213.687 41.944C213.687 42.584 213.479 43.192 213.063 43.768C212.679 44.344 212.087 44.776 211.287 45.064C211.447 45.096 211.639 45.112 211.863 45.112C212.087 45.112 212.263 45.112 212.391 45.112C213.351 45.112 214.199 44.808 214.935 44.2C215.671 43.592 216.279 42.632 216.759 41.32L218.439 36.376L219.591 36.28Z" fill="white"/>
</svg>
